<mxfile host="app.diagrams.net" modified="2024-02-22T09:27:05.878Z" agent="Mozilla/5.0 (Macintosh; Intel Mac OS X 10_15_7) AppleWebKit/537.36 (KHTML, like Gecko) Chrome/121.0.0.0 Safari/537.36" etag="WGmVQLLvakUYNzYy357a" version="23.1.1" type="github">
  <diagram name="第 1 页" id="mze9k2Do__tIofshHTzN">
    <mxGraphModel dx="2099" dy="1832" grid="1" gridSize="10" guides="1" tooltips="1" connect="1" arrows="1" fold="1" page="1" pageScale="1" pageWidth="827" pageHeight="1169" math="0" shadow="0">
      <root>
        <mxCell id="0" />
        <mxCell id="1" parent="0" />
        <mxCell id="Azp2uDw846boVKP-bpT7-1" value="AdCommonRequest" style="swimlane;fontStyle=1;align=center;verticalAlign=top;childLayout=stackLayout;horizontal=1;startSize=26;horizontalStack=0;resizeParent=1;resizeParentMax=0;resizeLast=0;collapsible=1;marginBottom=0;whiteSpace=wrap;html=1;fillColor=#eeeeee;strokeColor=#36393d;" vertex="1" parent="1">
          <mxGeometry x="170" y="91" width="260" height="92" as="geometry" />
        </mxCell>
        <mxCell id="Azp2uDw846boVKP-bpT7-2" value="+getAdInfo(callback): void&lt;br style=&quot;border-color: var(--border-color);&quot;&gt;&lt;i style=&quot;border-color: var(--border-color);&quot;&gt;+sendMsg(callback): void&lt;br&gt;+&lt;/i&gt;loadThirdAdData(data,callback):&amp;nbsp; void" style="text;strokeColor=none;fillColor=none;align=left;verticalAlign=top;spacingLeft=4;spacingRight=4;overflow=hidden;rotatable=0;points=[[0,0.5],[1,0.5]];portConstraint=eastwest;whiteSpace=wrap;html=1;" vertex="1" parent="Azp2uDw846boVKP-bpT7-1">
          <mxGeometry y="26" width="260" height="66" as="geometry" />
        </mxCell>
        <mxCell id="Azp2uDw846boVKP-bpT7-3" value="AdCommonRequest" style="swimlane;fontStyle=1;align=center;verticalAlign=top;childLayout=stackLayout;horizontal=1;startSize=26;horizontalStack=0;resizeParent=1;resizeParentMax=0;resizeLast=0;collapsible=1;marginBottom=0;whiteSpace=wrap;html=1;fillColor=#eeeeee;strokeColor=#36393d;" vertex="1" parent="1">
          <mxGeometry x="320" y="260" width="260" height="92" as="geometry" />
        </mxCell>
        <mxCell id="Azp2uDw846boVKP-bpT7-4" value="+getAdInfo(callback): void&lt;br style=&quot;border-color: var(--border-color);&quot;&gt;+sendMsg(callback): void" style="text;strokeColor=none;fillColor=none;align=left;verticalAlign=top;spacingLeft=4;spacingRight=4;overflow=hidden;rotatable=0;points=[[0,0.5],[1,0.5]];portConstraint=eastwest;whiteSpace=wrap;html=1;" vertex="1" parent="Azp2uDw846boVKP-bpT7-3">
          <mxGeometry y="26" width="260" height="66" as="geometry" />
        </mxCell>
        <mxCell id="Azp2uDw846boVKP-bpT7-5" value="&lt;i&gt;AdRequest&lt;/i&gt;" style="swimlane;fontStyle=1;align=center;verticalAlign=top;childLayout=stackLayout;horizontal=1;startSize=27;horizontalStack=0;resizeParent=1;resizeParentMax=0;resizeLast=0;collapsible=1;marginBottom=0;whiteSpace=wrap;html=1;fillColor=#eeeeee;strokeColor=#36393d;" vertex="1" parent="1">
          <mxGeometry x="570" y="93" width="150" height="67" as="geometry" />
        </mxCell>
        <mxCell id="Azp2uDw846boVKP-bpT7-6" value="+getAdInfo(callback): void&lt;br&gt;&lt;i&gt;+sendMsg&lt;span style=&quot;background-color: initial;&quot;&gt;(callback): void&lt;/span&gt;&lt;/i&gt;" style="text;strokeColor=none;fillColor=none;align=left;verticalAlign=top;spacingLeft=4;spacingRight=4;overflow=hidden;rotatable=0;points=[[0,0.5],[1,0.5]];portConstraint=eastwest;whiteSpace=wrap;html=1;" vertex="1" parent="Azp2uDw846boVKP-bpT7-5">
          <mxGeometry y="27" width="150" height="40" as="geometry" />
        </mxCell>
        <mxCell id="Azp2uDw846boVKP-bpT7-7" value="" style="endArrow=open;html=1;endSize=12;startArrow=diamondThin;startSize=14;startFill=0;edgeStyle=orthogonalEdgeStyle;align=left;verticalAlign=bottom;rounded=0;entryX=0;entryY=0.5;entryDx=0;entryDy=0;exitX=0.992;exitY=0.227;exitDx=0;exitDy=0;exitPerimeter=0;" edge="1" parent="1" source="Azp2uDw846boVKP-bpT7-2">
          <mxGeometry x="-1" y="3" relative="1" as="geometry">
            <mxPoint x="400" y="150" as="sourcePoint" />
            <mxPoint x="570" y="132" as="targetPoint" />
          </mxGeometry>
        </mxCell>
        <mxCell id="Azp2uDw846boVKP-bpT7-8" value="Extends" style="endArrow=block;endSize=16;endFill=0;html=1;rounded=0;entryX=0.519;entryY=0.962;entryDx=0;entryDy=0;entryPerimeter=0;exitX=0.608;exitY=0.017;exitDx=0;exitDy=0;exitPerimeter=0;" edge="1" parent="1" source="Azp2uDw846boVKP-bpT7-3" target="Azp2uDw846boVKP-bpT7-6">
          <mxGeometry width="160" relative="1" as="geometry">
            <mxPoint x="645" y="270" as="sourcePoint" />
            <mxPoint x="760" y="220" as="targetPoint" />
          </mxGeometry>
        </mxCell>
        <mxCell id="Azp2uDw846boVKP-bpT7-9" value="&lt;p style=&quot;margin:0px;margin-top:4px;text-align:center;&quot;&gt;«interface»&lt;br style=&quot;border-color: var(--border-color);&quot;&gt;&lt;b style=&quot;border-color: var(--border-color);&quot;&gt;RequestCallback&lt;/b&gt;&lt;/p&gt;&lt;hr size=&quot;1&quot;&gt;&lt;p style=&quot;margin:0px;margin-left:4px;&quot;&gt;+&amp;nbsp;onRequestSucceed&lt;span style=&quot;background-color: initial;&quot;&gt;(class): void&lt;/span&gt;&lt;/p&gt;&lt;p style=&quot;margin:0px;margin-left:4px;&quot;&gt;+&amp;nbsp;onRequestErr&lt;span style=&quot;background-color: initial;&quot;&gt;(enum): void&lt;/span&gt;&lt;/p&gt;" style="verticalAlign=top;align=left;overflow=fill;fontSize=12;fontFamily=Helvetica;html=1;whiteSpace=wrap;fillColor=#f9f7ed;strokeColor=#36393d;" vertex="1" parent="1">
          <mxGeometry x="-140" y="89" width="200" height="100" as="geometry" />
        </mxCell>
        <mxCell id="Azp2uDw846boVKP-bpT7-10" value="&lt;i&gt;AdRequestCallback&lt;/i&gt;" style="swimlane;fontStyle=1;align=center;verticalAlign=top;childLayout=stackLayout;horizontal=1;startSize=26;horizontalStack=0;resizeParent=1;resizeParentMax=0;resizeLast=0;collapsible=1;marginBottom=0;whiteSpace=wrap;html=1;fillColor=#eeeeee;strokeColor=#36393d;" vertex="1" parent="1">
          <mxGeometry x="-140" y="272" width="200" height="100" as="geometry" />
        </mxCell>
        <mxCell id="Azp2uDw846boVKP-bpT7-11" value="+onHandlerSuccess&lt;span style=&quot;background-color: initial;&quot;&gt;(class): void&lt;br&gt;&lt;/span&gt;+onHandlerFailed(class):void&lt;br&gt;&lt;i&gt;+&lt;/i&gt;onSuccess&lt;i style=&quot;background-color: initial;&quot;&gt;&lt;span style=&quot;background-color: initial;&quot;&gt;(entity): void&lt;br&gt;&lt;/span&gt;&lt;/i&gt;&lt;i style=&quot;border-color: var(--border-color);&quot;&gt;+&lt;/i&gt;&lt;i style=&quot;border-color: var(--border-color); background-color: initial;&quot;&gt;onFailed&lt;i style=&quot;background-color: initial; border-color: var(--border-color);&quot;&gt;(enum): void&lt;/i&gt;&lt;br&gt;&lt;/i&gt;" style="text;strokeColor=none;fillColor=none;align=left;verticalAlign=top;spacingLeft=4;spacingRight=4;overflow=hidden;rotatable=0;points=[[0,0.5],[1,0.5]];portConstraint=eastwest;whiteSpace=wrap;html=1;" vertex="1" parent="Azp2uDw846boVKP-bpT7-10">
          <mxGeometry y="26" width="200" height="74" as="geometry" />
        </mxCell>
        <mxCell id="Azp2uDw846boVKP-bpT7-12" value="&lt;i&gt;MjAdCommonRequestCallback&lt;/i&gt;" style="swimlane;fontStyle=1;align=center;verticalAlign=top;childLayout=stackLayout;horizontal=1;startSize=26;horizontalStack=0;resizeParent=1;resizeParentMax=0;resizeLast=0;collapsible=1;marginBottom=0;whiteSpace=wrap;html=1;fillColor=#eeeeee;strokeColor=#36393d;" vertex="1" parent="1">
          <mxGeometry x="-140" y="440" width="200" height="100" as="geometry" />
        </mxCell>
        <mxCell id="Azp2uDw846boVKP-bpT7-13" value="+onHandlerSuccess&lt;span style=&quot;background-color: initial;&quot;&gt;(class): void&lt;br&gt;&lt;/span&gt;+onHandlerFailed(class):void&lt;br&gt;&lt;i&gt;+&lt;/i&gt;onSuccess&lt;i style=&quot;background-color: initial;&quot;&gt;&lt;span style=&quot;background-color: initial;&quot;&gt;(entity): void&lt;br&gt;&lt;/span&gt;&lt;/i&gt;&lt;i style=&quot;border-color: var(--border-color);&quot;&gt;+&lt;/i&gt;&lt;i style=&quot;border-color: var(--border-color); background-color: initial;&quot;&gt;onFailed&lt;i style=&quot;background-color: initial; border-color: var(--border-color);&quot;&gt;(enum): void&lt;/i&gt;&lt;br&gt;&lt;/i&gt;" style="text;strokeColor=none;fillColor=none;align=left;verticalAlign=top;spacingLeft=4;spacingRight=4;overflow=hidden;rotatable=0;points=[[0,0.5],[1,0.5]];portConstraint=eastwest;whiteSpace=wrap;html=1;" vertex="1" parent="Azp2uDw846boVKP-bpT7-12">
          <mxGeometry y="26" width="200" height="74" as="geometry" />
        </mxCell>
        <mxCell id="Azp2uDw846boVKP-bpT7-14" value="Extends" style="endArrow=block;endSize=16;endFill=0;html=1;rounded=0;entryX=0.488;entryY=1.054;entryDx=0;entryDy=0;entryPerimeter=0;exitX=0.5;exitY=0;exitDx=0;exitDy=0;" edge="1" parent="1" source="Azp2uDw846boVKP-bpT7-12" target="Azp2uDw846boVKP-bpT7-11">
          <mxGeometry width="160" relative="1" as="geometry">
            <mxPoint x="-270" y="424" as="sourcePoint" />
            <mxPoint x="-110" y="424" as="targetPoint" />
          </mxGeometry>
        </mxCell>
        <mxCell id="Azp2uDw846boVKP-bpT7-15" value="Extends" style="endArrow=block;endSize=16;endFill=0;html=1;rounded=0;exitX=0.468;exitY=0.01;exitDx=0;exitDy=0;exitPerimeter=0;entryX=0.463;entryY=1.05;entryDx=0;entryDy=0;entryPerimeter=0;" edge="1" parent="1" source="Azp2uDw846boVKP-bpT7-10" target="Azp2uDw846boVKP-bpT7-9">
          <mxGeometry width="160" relative="1" as="geometry">
            <mxPoint x="-47.59999999999991" y="244.00400000000002" as="sourcePoint" />
            <mxPoint x="-50" y="210" as="targetPoint" />
          </mxGeometry>
        </mxCell>
        <mxCell id="Azp2uDw846boVKP-bpT7-16" value="" style="endArrow=open;html=1;endSize=12;startArrow=diamondThin;startSize=14;startFill=0;edgeStyle=orthogonalEdgeStyle;align=left;verticalAlign=bottom;rounded=0;entryX=1;entryY=0.5;entryDx=0;entryDy=0;exitX=-0.004;exitY=0.331;exitDx=0;exitDy=0;exitPerimeter=0;" edge="1" parent="1" source="Azp2uDw846boVKP-bpT7-2" target="Azp2uDw846boVKP-bpT7-9">
          <mxGeometry x="-1" y="3" relative="1" as="geometry">
            <mxPoint x="388" y="300" as="sourcePoint" />
            <mxPoint x="230" y="300" as="targetPoint" />
          </mxGeometry>
        </mxCell>
        <mxCell id="Azp2uDw846boVKP-bpT7-17" value="ViewModel" style="swimlane;fontStyle=1;align=center;verticalAlign=top;childLayout=stackLayout;horizontal=1;startSize=26;horizontalStack=0;resizeParent=1;resizeParentMax=0;resizeLast=0;collapsible=1;marginBottom=0;whiteSpace=wrap;html=1;fillColor=#eeeeee;strokeColor=#36393d;" vertex="1" parent="1">
          <mxGeometry x="193" y="-70" width="220" height="70" as="geometry" />
        </mxCell>
        <mxCell id="Azp2uDw846boVKP-bpT7-18" value="+getAdInfo&lt;span style=&quot;background-color: initial;&quot;&gt;(callback): void&lt;/span&gt;" style="text;strokeColor=none;fillColor=none;align=left;verticalAlign=top;spacingLeft=4;spacingRight=4;overflow=hidden;rotatable=0;points=[[0,0.5],[1,0.5]];portConstraint=eastwest;whiteSpace=wrap;html=1;" vertex="1" parent="Azp2uDw846boVKP-bpT7-17">
          <mxGeometry y="26" width="220" height="44" as="geometry" />
        </mxCell>
        <mxCell id="Azp2uDw846boVKP-bpT7-19" value="" style="endArrow=open;html=1;endSize=12;startArrow=diamondThin;startSize=14;startFill=0;edgeStyle=orthogonalEdgeStyle;align=left;verticalAlign=bottom;rounded=0;" edge="1" parent="1" target="Azp2uDw846boVKP-bpT7-1">
          <mxGeometry x="-1" y="3" relative="1" as="geometry">
            <mxPoint x="300" as="sourcePoint" />
            <mxPoint x="303.33000000000004" y="140" as="targetPoint" />
          </mxGeometry>
        </mxCell>
        <mxCell id="Azp2uDw846boVKP-bpT7-20" value="AbsAdIndexRequest" style="swimlane;fontStyle=1;align=center;verticalAlign=top;childLayout=stackLayout;horizontal=1;startSize=26;horizontalStack=0;resizeParent=1;resizeParentMax=0;resizeLast=0;collapsible=1;marginBottom=0;whiteSpace=wrap;html=1;fillColor=#eeeeee;strokeColor=#36393d;" vertex="1" parent="1">
          <mxGeometry x="600" y="260" width="210" height="90" as="geometry" />
        </mxCell>
        <mxCell id="Azp2uDw846boVKP-bpT7-21" value="+getInsertLayer&lt;span style=&quot;background-color: initial;&quot;&gt;(data): void&lt;/span&gt;&lt;br&gt;+biddingResultCallBack&lt;span style=&quot;background-color: initial;&quot;&gt;(callback): void&lt;/span&gt;" style="text;strokeColor=none;fillColor=none;align=left;verticalAlign=top;spacingLeft=4;spacingRight=4;overflow=hidden;rotatable=0;points=[[0,0.5],[1,0.5]];portConstraint=eastwest;whiteSpace=wrap;html=1;" vertex="1" parent="Azp2uDw846boVKP-bpT7-20">
          <mxGeometry y="26" width="210" height="64" as="geometry" />
        </mxCell>
        <mxCell id="Azp2uDw846boVKP-bpT7-22" value="Extends" style="endArrow=block;endSize=16;endFill=0;html=1;rounded=0;entryX=0.519;entryY=0.962;entryDx=0;entryDy=0;entryPerimeter=0;" edge="1" parent="1" source="Azp2uDw846boVKP-bpT7-20">
          <mxGeometry width="160" relative="1" as="geometry">
            <mxPoint x="488" y="272" as="sourcePoint" />
            <mxPoint x="658" y="168" as="targetPoint" />
          </mxGeometry>
        </mxCell>
        <mxCell id="Azp2uDw846boVKP-bpT7-23" value="AdIndexPriceRequest" style="swimlane;fontStyle=1;align=center;verticalAlign=top;childLayout=stackLayout;horizontal=1;startSize=26;horizontalStack=0;resizeParent=1;resizeParentMax=0;resizeLast=0;collapsible=1;marginBottom=0;whiteSpace=wrap;html=1;fillColor=#eeeeee;strokeColor=#36393d;" vertex="1" parent="1">
          <mxGeometry x="440" y="420" width="210" height="90" as="geometry" />
        </mxCell>
        <mxCell id="Azp2uDw846boVKP-bpT7-24" value="+getAdInfo(callback): void&lt;br style=&quot;border-color: var(--border-color);&quot;&gt;+sendMsg(callback): void&lt;br style=&quot;border-color: var(--border-color);&quot;&gt;+doPriceIndexAd(callback): void" style="text;strokeColor=none;fillColor=none;align=left;verticalAlign=top;spacingLeft=4;spacingRight=4;overflow=hidden;rotatable=0;points=[[0,0.5],[1,0.5]];portConstraint=eastwest;whiteSpace=wrap;html=1;" vertex="1" parent="Azp2uDw846boVKP-bpT7-23">
          <mxGeometry y="26" width="210" height="64" as="geometry" />
        </mxCell>
        <mxCell id="Azp2uDw846boVKP-bpT7-25" value="Extends" style="endArrow=block;endSize=16;endFill=0;html=1;rounded=0;entryX=0.505;entryY=1.031;entryDx=0;entryDy=0;entryPerimeter=0;exitX=0.5;exitY=0;exitDx=0;exitDy=0;" edge="1" parent="1" source="Azp2uDw846boVKP-bpT7-23" target="Azp2uDw846boVKP-bpT7-21">
          <mxGeometry width="160" relative="1" as="geometry">
            <mxPoint x="712" y="432" as="sourcePoint" />
            <mxPoint x="680" y="340" as="targetPoint" />
          </mxGeometry>
        </mxCell>
        <mxCell id="Azp2uDw846boVKP-bpT7-26" value="CommonAdIndexPriceRequest" style="swimlane;fontStyle=1;align=center;verticalAlign=top;childLayout=stackLayout;horizontal=1;startSize=26;horizontalStack=0;resizeParent=1;resizeParentMax=0;resizeLast=0;collapsible=1;marginBottom=0;whiteSpace=wrap;html=1;fillColor=#eeeeee;strokeColor=#36393d;" vertex="1" parent="1">
          <mxGeometry x="204" y="570" width="210" height="90" as="geometry" />
        </mxCell>
        <mxCell id="Azp2uDw846boVKP-bpT7-27" value="+doSendMsg&lt;span style=&quot;background-color: initial;&quot;&gt;(callback): void&lt;/span&gt;" style="text;strokeColor=none;fillColor=none;align=left;verticalAlign=top;spacingLeft=4;spacingRight=4;overflow=hidden;rotatable=0;points=[[0,0.5],[1,0.5]];portConstraint=eastwest;whiteSpace=wrap;html=1;" vertex="1" parent="Azp2uDw846boVKP-bpT7-26">
          <mxGeometry y="26" width="210" height="64" as="geometry" />
        </mxCell>
        <mxCell id="Azp2uDw846boVKP-bpT7-28" value="Extends" style="endArrow=block;endSize=16;endFill=0;html=1;rounded=0;entryX=0.446;entryY=1.083;entryDx=0;entryDy=0;entryPerimeter=0;exitX=0.5;exitY=0;exitDx=0;exitDy=0;" edge="1" parent="1" source="Azp2uDw846boVKP-bpT7-26" target="Azp2uDw846boVKP-bpT7-24">
          <mxGeometry width="160" relative="1" as="geometry">
            <mxPoint x="320" y="570" as="sourcePoint" />
            <mxPoint x="490" y="466" as="targetPoint" />
          </mxGeometry>
        </mxCell>
        <mxCell id="Azp2uDw846boVKP-bpT7-29" value="AdMultiRequest" style="swimlane;fontStyle=1;align=center;verticalAlign=top;childLayout=stackLayout;horizontal=1;startSize=26;horizontalStack=0;resizeParent=1;resizeParentMax=0;resizeLast=0;collapsible=1;marginBottom=0;whiteSpace=wrap;html=1;fillColor=#eeeeee;strokeColor=#36393d;" vertex="1" parent="1">
          <mxGeometry x="730" y="420" width="210" height="90" as="geometry" />
        </mxCell>
        <mxCell id="Azp2uDw846boVKP-bpT7-30" value="+getAdInfo(callback): void&lt;br style=&quot;border-color: var(--border-color);&quot;&gt;+sendMsg(callback): void&lt;br style=&quot;border-color: var(--border-color);&quot;&gt;" style="text;strokeColor=none;fillColor=none;align=left;verticalAlign=top;spacingLeft=4;spacingRight=4;overflow=hidden;rotatable=0;points=[[0,0.5],[1,0.5]];portConstraint=eastwest;whiteSpace=wrap;html=1;" vertex="1" parent="Azp2uDw846boVKP-bpT7-29">
          <mxGeometry y="26" width="210" height="64" as="geometry" />
        </mxCell>
        <mxCell id="Azp2uDw846boVKP-bpT7-31" value="Extends" style="endArrow=block;endSize=16;endFill=0;html=1;rounded=0;entryX=0.548;entryY=1.031;entryDx=0;entryDy=0;entryPerimeter=0;exitX=0.5;exitY=0;exitDx=0;exitDy=0;" edge="1" parent="1" source="Azp2uDw846boVKP-bpT7-29" target="Azp2uDw846boVKP-bpT7-21">
          <mxGeometry width="160" relative="1" as="geometry">
            <mxPoint x="555" y="430" as="sourcePoint" />
            <mxPoint x="716" y="362" as="targetPoint" />
          </mxGeometry>
        </mxCell>
        <mxCell id="Azp2uDw846boVKP-bpT7-32" value="FeedFirstScreenAdIndexPriceRequest" style="swimlane;fontStyle=1;align=center;verticalAlign=top;childLayout=stackLayout;horizontal=1;startSize=26;horizontalStack=0;resizeParent=1;resizeParentMax=0;resizeLast=0;collapsible=1;marginBottom=0;whiteSpace=wrap;html=1;fillColor=#eeeeee;strokeColor=#36393d;" vertex="1" parent="1">
          <mxGeometry x="540" y="576" width="260" height="90" as="geometry" />
        </mxCell>
        <mxCell id="Azp2uDw846boVKP-bpT7-33" value="+doSendMsg&lt;span style=&quot;background-color: initial;&quot;&gt;(callback): void&lt;/span&gt;" style="text;strokeColor=none;fillColor=none;align=left;verticalAlign=top;spacingLeft=4;spacingRight=4;overflow=hidden;rotatable=0;points=[[0,0.5],[1,0.5]];portConstraint=eastwest;whiteSpace=wrap;html=1;" vertex="1" parent="Azp2uDw846boVKP-bpT7-32">
          <mxGeometry y="26" width="260" height="64" as="geometry" />
        </mxCell>
        <mxCell id="Azp2uDw846boVKP-bpT7-34" value="Extends" style="endArrow=block;endSize=16;endFill=0;html=1;rounded=0;entryX=0.554;entryY=1.031;entryDx=0;entryDy=0;entryPerimeter=0;exitX=0.5;exitY=0;exitDx=0;exitDy=0;" edge="1" parent="1" source="Azp2uDw846boVKP-bpT7-32" target="Azp2uDw846boVKP-bpT7-24">
          <mxGeometry width="160" relative="1" as="geometry">
            <mxPoint x="319" y="580" as="sourcePoint" />
            <mxPoint x="544" y="525" as="targetPoint" />
          </mxGeometry>
        </mxCell>
      </root>
    </mxGraphModel>
  </diagram>
</mxfile>
